<?xml version="1.0" standalone="no"?>
<!DOCTYPE svg PUBLIC "-//W3C//DTD SVG 1.1//EN" "http://www.w3.org/Graphics/SVG/1.1/DTD/svg11.dtd" >
<!--
2013-9-30: Created.
-->
<svg>
<metadata>
Created by iconfont
</metadata>
<defs>

<font id="iconfont" horiz-adv-x="1024" >
  <font-face
    font-family="iconfont"
    font-weight="500"
    font-stretch="normal"
    units-per-em="1024"
    ascent="896"
    descent="-128"
  />
    <missing-glyph />
    
    <glyph glyph-name="icon13" unicode="&#58975;" d="M837.45650574 287.87234363000005L837.45650574 548.5265704000001c0 179.95227933-146.83526485 325.82913479-327.98254763 325.82913478-181.0844069 0-327.92200192-145.87685547-327.92200192-325.82913478l0-260.65422677L50.33635043 27.185517239999967l298.47577259 0c15.21446685-74.33791033 81.34331392-130.31023047 160.66183509-130.31023047 79.38023197 0 145.50907904 55.97232014 160.7223808 130.31023047L968.61389597 27.185517239999967 837.45650574 287.87234363000005zM509.47395811-37.95795510999994c-42.75233792 0-78.79573163 27.28176185-92.33470918 65.14347235l184.7334582 0C588.33140053-10.677357219999976 552.29033472-37.95795510999994 509.47395811-37.95795510999994zM139.20248263 74.59561245999998l101.01604921 201.96560555L240.2185307 545.83821313c0 148.7107493 120.57002098 269.27583118 269.25542741 269.27583119 148.74944512 0 269.31830215-120.56508075 269.31830216-269.27583119l0-269.27583118 100.95433842-201.96560554L139.20248263 74.59677640999996z"  horiz-adv-x="1024" />

    
    <glyph glyph-name="zhaoxiangji" unicode="&#59116;" d="M512 603.428571c-141.357714 0-256-114.642286-256-256s114.642286-256 256-256 256 114.642286 256 256S653.357714 603.428571 512 603.428571zM512 182.857143c-90.750171 0-164.571429 73.821257-164.571429 164.571429s73.821257 164.571429 164.571429 164.571429 164.571429-73.821257 164.571429-164.571429S602.750171 182.857143 512 182.857143zM841.142857 603.428571c-20.214857 0-36.571429-16.356571-36.571429-36.571429s16.356571-36.571429 36.571429-36.571429 36.571429 16.356571 36.571429 36.571429S861.357714 603.428571 841.142857 603.428571zM950.857143 713.142857 750.999771 713.142857l-62.2848 93.429029C681.929143 816.749714 670.500571 822.857143 658.285714 822.857143L365.714286 822.857143c-12.214857 0-23.643429-6.107429-30.429257-16.285257L273.000229 713.142857 73.142857 713.142857c-40.321829 0-73.142857-32.821029-73.142857-73.142857l0-585.142857c0-40.321829 32.821029-73.142857 73.142857-73.142857l877.714286 0c40.321829 0 73.142857 32.821029 73.142857 73.142857L1024 640C1024 680.321829 991.178971 713.142857 950.857143 713.142857zM73.142857 54.857143 73.142857 640l219.428571 0c12.214857 0 23.643429 6.107429 30.429257 16.285257L385.285486 749.714286l253.429029 0 62.2848-93.429029C707.786971 646.107429 719.215543 640 731.428571 640l219.428571 0 0.071314-585.142857L73.142857 54.857143z"  horiz-adv-x="1024" />

    
    <glyph glyph-name="huojing" unicode="&#59040;" d="M327.232-64c0 0-168 98.048-185.344 252.736-17.408 155.52 115.84 367.616 115.84 367.616l23.168-114.88c0 0 85.504 94.144 138.944 206.784C455.232 722.752 443.008 832 443.008 832s79.488-39.744 139.008-114.816c67.392-85.12 115.84-229.76 115.84-229.76l23.168 183.808c0 0 173.184-237.696 162.112-413.504C871.104 66.55999999999995 674.688-64 674.688-64s59.072 145.216 23.168 275.712c-33.472 121.92-162.176 229.76-162.176 229.76S521.216 361.15200000000004 512.512 326.592c-13.44-53.184-23.168-91.904-23.168-91.904L419.84 349.568c0 0-57.984-128.896-92.608-206.72C278.72 33.66399999999999 327.232-64 327.232-64z"  horiz-adv-x="1024" />

    
    <glyph glyph-name="bofang" unicode="&#58923;" d="M512-210.72C230.4-210.72 1.312 18.368 1.312 300 1.312 581.6 230.4 810.688 512 810.688 793.6 810.688 1022.688 581.6 1022.688 300 1022.688 18.368 793.6-210.72 512-210.72zM512 746.688C265.696 746.688 65.312 546.304 65.312 300c0-246.304 200.384-446.72 446.688-446.72 246.336 0 446.688 200.416 446.688 446.72C958.688 546.304 758.304 746.688 512 746.688zM336 537.504 753.312 300 336 62.496ZM336 46.496c-2.784 0-5.568 0.704-8.032 2.144C323.008 51.52 320 56.8 320 62.496L320 537.504c0 5.696 3.04 10.976 7.968 13.824 4.928 2.88 11.008 2.88 15.968 0.064l417.344-237.504c4.992-2.848 8.096-8.16 8.096-13.92s-3.104-11.072-8.096-13.92l-417.312-237.504C341.44 47.2 338.72 46.496 336 46.496zM352 509.984l0-419.968L720.96 300 352 509.984z"  horiz-adv-x="1024" />

    
    <glyph glyph-name="zan" unicode="&#58938;" d="M934.32736206 394.88635254c0.31228638-3.88668823 0.02059937-7.88296509-1.03326416-11.86605835l-76.00671387-335.49032593c-1.06704711-4.01770019-2.82623291-7.66708374-5.05673218-10.91107178-8.14004516-16.25454713-20.51861573-30.62960815-36.97586059-41.09573364-17.33724976-11.02066041-36.70065307-16.16473388-55.82592774-16.13012695l0 0.2109375-488.22308349 0.20352172c-1.70645141-0.25296021-3.43432617-0.42434692-5.21328735-0.42434691-1.78390503 0-3.51919555 0.17138672-5.23718262 0.4317627l-129.86251831 0.05355834c-1.82510375-0.29251099-3.68316651-0.48614502-5.59313965-0.48614502C105.87033081-20.617675780000013 90.125-4.869873050000024 90.125 14.554504390000034l0.31887817 422.27792358c0 19.42932129 15.75274659 35.17382813 35.18206787 35.17382813 1.45101929 0 2.87402345-0.11206055 4.28302003-0.29003907l116.73330688 0.2727356 0 0.66329956c107.40509033 7.68850708 192.51177979 95.73760987 195.54812622 204.36547852-0.27026367 3.0569458-0.46389771 6.12872315-0.46389772 9.25570679 0 56.51312257 45.80969239 102.33023071 102.3310547 102.33023071 48.56588745 0 89.13757325-33.86700439 99.61853028-79.24411011l0.51663208 0.06756593c5.76123047-25.9065857 8.90139771-52.79946899 8.9013977-80.4355774 0-42.61184693-7.2756958-83.51229859-20.58618164-121.57250976l196.33419801-0.21176148c1.80532837 0 3.57110596-0.18045044 5.30886839-0.44659424 33.522583-1.31671143 65.81002807-18.5789795 84.82736207-49.2324829C931.07678223 438.03378297 935.90280151 416.12924195 934.32736206 394.88635254M160.50643921 50.20211791999998l70.3427124-0.02966308 0.26531982 351.43341064-70.27679443-0.15655517L160.50643921 50.20211791999998 160.50643921 50.20211791999998zM859.60769653 420.77481079c-6.76235962 10.90200805-18.70504761 16.63275146-30.67575073 15.98675538l0 0.10464477c-0.02883911 0-0.05932617 0-0.08816529 0l-248.16961669 0.25872801c-19.42272949 0-35.17382813 15.75274659-35.17382813 35.17959597 0 5.59231568 1.34390258 10.86492921 3.66751098 15.55911255l-0.37326049 0.30816649c14.05123901 26.1595459 24.27346802 54.67565919 30.06848145 84.75814819l0.44082641-0.01153564c0 0 4.67687988 18.99343872 4.61755373 55.42382812-0.05026245 28.85888672-5.30886841 55.20547485-5.30886842 55.20547487l-0.26531983 0c0.02389526 0.51168823 0.07910156 1.01184082 0.07910156 1.53012084 0 18.16204834-14.72854614 32.88977051-32.88977051 32.88977051-18.17111206 0-32.8996582-14.72772217-32.8996582-32.88977051 0-0.75888062 0.06756592-1.50787355 0.11453247-2.25439453l-0.45812987-0.0065918c0 0 0.55947876-27.46142578-4.92242432-55.94210815-2.32772827-12.08193969-5.59890747-23.34896851-8.57757568-32.2734375-0.06015015 0.02883911-0.11288452 0.05273439-0.17303468 0.08239747-29.60540771-90.51196289-104.04904175-160.67340089-197.08566284-184.30828859l-0.33782959-360.23016357 458.39767456-0.18704224c1.54989625 0 3.06271362-0.13183594 4.55575562-0.33535766 4.57388305 0.60974122 9.09420777 2.18930054 13.24621582 4.82931518 5.89306641 3.74414063 10.17114258 9.05548096 12.67849731 15.04824829l0.08981322-0.05026245 73.18048096 323.0071106-0.28344725 0.08486937C865.98855591 401.67755127 865.05993653 411.98382567 859.60769653 420.77481079"  horiz-adv-x="1025" />

    
    <glyph glyph-name="wenti" unicode="&#58897;" d="M239.9 557c0 152 122.1 273.7 272.2 273.7s272.2-121.4 272.2-271.5c0-114.8-72.3-217.2-180.1-256C582.4 298.7 484.1 255 484.1 28l50.5 0c0 201 79.6 226.2 79.7 226.2 1.7 0.2 3.3 0.7 4.9 1.2 129 45.3 215.7 167.7 215.7 304.5 0 177.9-144.8 321.2-322.7 321.2C334.2 881.2 189.4 734 189.4 557L239.9 557zM517.4-37.5c-20.9 0-37.8-16.9-37.8-37.8s17-37.8 37.8-37.8c20.9 0 37.8 16.9 37.8 37.8S538.3-37.5 517.4-37.5z"  horiz-adv-x="1024" />

    
    <glyph glyph-name="jian" unicode="&#58947;" d="M117.73410601 437.78674601L906.21213399 437.78674601C925.995765 437.78674601 959.972 413.72024601 959.972 384.02688 959.972 354.33351401000004 925.995765 330.26701401 906.21213399 330.26701401L117.73410601 330.26701401C97.950475 330.26701401 63.97424 354.33351401000004 63.97424 384.02688 63.97424 413.72024601 97.950475 437.78674601 117.73410601 437.78674601Z"  horiz-adv-x="1024" />

    
    <glyph glyph-name="zhaopian" unicode="&#58944;" d="M933.875 700.40625c0 29.00390625-23.73046875 52.734375-52.734375 52.734375L142.859375 753.140625C113.85546875 753.140625 90.125 729.41015625 90.125 700.40625l0-632.8125c0-29.00390625 23.73046875-52.734375 52.734375-52.734375l738.28125 0c29.00390625 0 52.734375 23.73046875 52.734375 52.734375L933.875 700.40625zM881.140625 700.40625l0-482.51953125-155.56640625 158.203125c-10.546875 10.546875-23.73046875 10.546875-34.27734375 2.63671875L591.1015625 291.71484375l-218.84765625 216.2109375c-5.2734375 5.2734375-10.546875 7.91015625-18.45703125 10.546875-7.91015625 0-13.18359375-2.63671875-18.45703125-7.91015625L142.859375 323.35546875 142.859375 700.40625 881.140625 700.40625zM142.859375 67.59375l0 181.93359375 210.9375 205.6640625 218.84765625-218.84765625c7.91015625-10.546875 23.73046875-10.546875 36.9140625 0l97.55859375 87.01171875 174.0234375-179.296875c0 0 2.63671875 0 2.63671875-2.63671875L883.77734375 67.59375 142.859375 67.59375zM696.5703125 542.203125m-52.734375 0a1.64794922 1.64794922 0 1 1 105.46875 0 1.64794922 1.64794922 0 1 1-105.46875 0Z"  horiz-adv-x="1024" />

    
    <glyph glyph-name="xiaolian" unicode="&#58919;" d="M512.015-96C246.905-96 32.015 118.88999999999999 32.015 384 32.015 649.11 246.905 864 512.015 864 777.11 864 992 649.11 992 384 992 118.88999999999999 777.11-96 512.015-96ZM512.015 804C280.415 804 92.015 615.6 92.015 384 92.015 152.41499999999996 280.415-36 512.015-36 743.6-36 932 152.41499999999996 932 384 932 615.6 743.6 804 512.015 804ZM510.44 82.63499999999999C509.24 82.63499999999999 508.01 82.60500000000002 506.795 82.60500000000002 323.555 82.60500000000002 246.71 247.95000000000005 243.515 255.04499999999996 236.69 270.16499999999996 243.395 287.90999999999997 258.485 294.735 273.605 301.53 291.29 294.855 298.145 279.855 300.725 274.20000000000005 362.87 142.60500000000002 506.915 142.60500000000002 507.86 142.60500000000002 508.79 142.635 509.735 142.635 662.84 144.41999999999996 724.22 278.28 724.835 279.615 731.54 294.735 749.21 301.62 764.435 294.79499999999996 779.555 288.05999999999995 786.38 270.33000000000004 779.615 255.17999999999995 776.54 248.25 701.57 84.88499999999999 510.44 82.63499999999999ZM661.535 414.15C628.46 414.15 601.685 440.97 601.685 474.015 601.685 507.03 628.46 533.835 661.535 533.835 694.595 533.835 721.385 507.03 721.385 474.015 721.385 440.97 694.595 414.15 661.535 414.15ZM361.535 414.15C328.46 414.15 301.685 440.97 301.685 474.015 301.685 507.03 328.46 533.835 361.535 533.835 394.595 533.835 421.385 507.03 421.385 474.015 421.385 440.97 394.595 414.15 361.535 414.15Z"  horiz-adv-x="1025" />

    
    <glyph glyph-name="gouwuche1" unicode="&#59143;" d="M268.58666667 128c2.56 0 632.32 0 639.36 0 14.72 0 26.24 12.8 28.16 28.8 0 0 43.52 244.48 64 413.44C1005.86666667 616.96 983.46666667 640 940.58666667 640L243.62666667 640 232.10666667 739.84C230.18666667 755.2 219.30666667 768 205.22666667 768 203.30666667 768 76.58666667 768 76.58666667 768c-17.92 0-32-14.08-32-32 0-17.92 14.08-32 32-32l99.84 0 64.64-547.2C242.34666667 140.79999999999995 254.50666667 128 268.58666667 128zM939.30666667 576c-17.28-135.68-46.08-316.16-57.6-384L296.74666667 192 251.30666667 576 939.30666667 576zM300.58666667 64c-35.2 0-64-28.8-64-64 0-35.2 28.8-64 64-64 35.2 0 64 28.8 64 64C364.58666667 35.200000000000045 335.78666667 64 300.58666667 64zM876.58666667 64c-35.2 0-64-28.8-64-64 0-35.2 28.8-64 64-64 35.2 0 64 28.8 64 64C940.58666667 35.200000000000045 911.78666667 64 876.58666667 64z"  horiz-adv-x="1024" />

    
    <glyph glyph-name="lightningbshandian" unicode="&#59065;" d="M429.75783573-96.22913919999996c-2.6513184 0-4.64772053 0.7051264-5.97283413 1.99640213-9.29544107 2.693888-12.6093152 7.96159467-9.9579968 15.93083094l61.73565333 364.41379946L206.72511147 286.11189333000004c-6.63538987 0-11.2831104 2.65895893-13.94316054 7.96923627-3.97643093 5.26770773-3.3138752 11.2405408 1.99640214 17.91959253L608.98213973 853.6511552c5.31027733 7.96923627 11.2831104 9.25287147 17.91959254 3.98516373 6.63538987-1.3251136 9.9579968-6.67795947 9.9579968-15.93083093l-61.73565334-364.42253227L812.09886933 477.28295573c6.63538987 0 11.2831104-2.693888 13.94316054-7.96159466 1.3251136-5.31027733 1.3251136-11.2831104 0-17.92723307L443.70099733-90.25630612999998C439.7158336-94.23273706999998 435.06811307-96.22913919999996 429.75783573-96.22913919999996z"  horiz-adv-x="1024" />

    
    <glyph glyph-name="gouwuche" unicode="&#58881;" d="M186.953744 624.386151 150.81215 808.216416 94.851888 808.216416l0-14.138971 42.427551 0L264.572726 143.611486l622.157289 0 42.418096 480.774665L186.953744 624.386151zM872.580408 157.702004l-593.898255 0-88.958286 452.545176 720.750734 0L872.580408 157.702004zM349.388828 101.183935c-39.049986 0-70.706675-31.656689-70.706675-70.706675 0-39.049986 31.656689-70.706675 70.706675-70.706675s70.706675 31.656689 70.706675 70.706675C420.051777 69.509519 388.421088 101.14139 349.388828 101.183935zM349.388828-26.108171c-31.240698 0-56.566522 25.325824-56.566522 56.566522 0 31.240698 25.325824 56.566522 56.566522 56.566522s56.566522-25.325824 56.566522-56.566522c-0.048454-31.21588-25.350642-56.505069-56.566522-56.536977L349.388828-26.108171zM801.884369 101.183935c-39.049986 0-70.706675-31.656689-70.706675-70.706675s31.656689-70.706675 70.706675-70.706675c39.049986 0 70.706675 31.656689 70.706675 70.706675C872.547318 69.509519 840.916628 101.14139 801.884369 101.183935zM801.884369-26.108171c-31.240698 0-56.566522 25.325824-56.566522 56.566522 0 31.240698 25.325824 56.566522 56.566522 56.566522 31.240698 0 56.566522-25.325824 56.566522-56.566522-0.042545-31.218244-25.348278-56.510978-56.566522-56.536977L801.884369-26.108171z"  horiz-adv-x="1024" />

    
    <glyph glyph-name="Close" unicode="&#59105;" d="M1014.443 562.403c10.923 16.384 7.282 38.229-7.282 50.973-16.384 12.743-38.229 9.102-50.973-7.282-1.821-1.821-203.89-240.299-444.189-240.299-233.017 0-444.189 240.299-446.009 242.119-12.743 14.563-36.409 16.384-50.973 3.641-14.563-12.743-16.384-36.409-3.641-50.973 3.641-5.461 47.331-54.613 116.509-109.227l-92.843-96.483c-14.563-14.563-12.743-38.229 1.821-50.973 3.641-7.282 12.743-10.923 21.845-10.923 9.102 0 18.205 3.641 25.486 10.923l100.125 103.765c47.331-32.768 103.765-63.715 165.661-85.561l-38.229-129.251c-5.461-20.025 5.461-40.050 25.486-45.511 3.641 0 7.282 0 10.923 0 16.384 0 30.947 10.923 34.589 27.307l38.229 129.251c29.127-5.461 60.075-9.102 91.022-9.102s61.895 3.641 91.022 9.102l38.229-127.431c3.641-16.384 20.025-27.307 34.589-27.307 3.641 0 7.282 0 9.102 1.821 20.025 5.461 30.947 25.486 25.486 45.511l-38.229 127.431c61.895 21.845 118.329 52.793 165.661 85.561l98.304-101.945c7.282-7.282 16.384-10.923 25.486-10.923s18.205 3.641 25.486 10.923c14.563 14.563 14.563 36.409 1.821 50.973l-92.843 96.483c74.638 54.613 118.329 107.406 118.329 107.406z"  horiz-adv-x="1024" />

    
    <glyph glyph-name="Voice" unicode="&#58926;" d="M537.6 52.275v-129.075h179.2c14.131 0 25.6-11.469 25.6-25.6 0-14.131-11.469-25.6-25.6-25.6h-409.6c-14.131 0-25.6 11.469-25.6 25.6 0 14.131 11.469 25.6 25.6 25.6h179.2v129.075c-171.597 13.133-307.2 156.851-307.2 331.725 0 14.131 11.469 25.6 25.6 25.6 14.131 0 25.6-11.469 25.6-25.6 0-155.29 126.31-281.6 281.6-281.6 155.264 0 281.6 126.31 281.6 281.6 0 14.131 11.469 25.6 25.6 25.6 14.131 0 25.6-11.469 25.6-25.6 0-174.874-135.629-318.592-307.2-331.725zM716.8 691.2l-1.254-307.2c0-105.856-97.69-203.827-203.546-203.827s-204.237 94.797-204.237 200.653l-0.563 310.374c0 105.856 98.944 204.8 204.8 204.8s204.8-98.944 204.8-204.8zM665.6 691.2c0 77.696-75.904 153.6-153.6 153.6s-153.6-75.904-153.6-153.6l-1.254-308.122c0-77.696 77.158-152.115 154.854-152.115s154.163 75.341 154.163 153.037l-0.563 307.2z"  horiz-adv-x="1024" />

    
    <glyph glyph-name="jia" unicode="&#58912;" d="M980.918297 341.147006 43.079656 341.147006c-23.657816 0-42.856064 19.197224-42.856064 42.8489 0 23.657816 19.198248 42.857087 42.856064 42.857087l937.838641 0c23.697725 0 42.859134-19.199271 42.859134-42.857087C1023.775384 360.344231 1004.616022 341.147006 980.918297 341.147006L980.918297 341.147006zM469.147518-84.917786 469.147518 852.920856c0 23.657816 19.197224 42.856064 42.8489 42.856064 23.657816 0 42.856064-19.198248 42.856064-42.856064l0-937.838641c0-23.697725-19.199271-42.859134-42.856064-42.859134C488.344742-127.774873 469.147518-108.615511 469.147518-84.917786L469.147518-84.917786z"  horiz-adv-x="1024" />

    
    <glyph glyph-name="weibodenglu" unicode="&#58887;" d="M635.6992 389.43402667c-20.00213333 3.87754667-10.28096 14.65002667-10.28096 14.65002666s19.56522667 32.24917333-3.87754667 55.7056c-29.05429333 29.04064-99.64202667-3.70005333-99.64202666-3.70005333-26.96533333-8.36949333-19.81098667 3.82293333-16.00170667 24.54869333 0 24.43946667-8.36949333 65.78176-80.18602667 41.35594667-71.74826667-24.56234667-133.35210667-110.592-133.35210666-110.592-42.84416-57.16650667-37.16437333-101.36234667-37.16437334-101.36234667 10.70421333-97.53941333 114.34666667-124.32725333 194.95594667-130.6624 84.81450667-6.64917333 199.28405333 29.23178667 233.99082667 102.95978667C718.848 356.20181333000005 655.7696 385.4336 635.6992 389.43402667zM456.41728 206.88896c-84.20010667-3.93216-152.26197333 38.28394667-152.26197333 94.46741333 0 56.25173333 68.06186667 101.36234667 152.26197333 105.23989334 84.25472 3.87754667 152.45312-30.82922667 152.45312-86.97173334C608.8704 263.45471999999995 540.672 210.72554666999997 456.41728 206.88896zM439.62368 369.55477333c-84.67797333-9.91232-74.90218667-89.23818667-74.90218667-89.23818666s-0.86016-25.12213333 22.70549334-37.91530667c49.54794667-26.84245333 100.57045333-10.59498667 126.34794666 22.69184C539.56608 298.40725333 524.43818667 379.39882666999995 439.62368 369.55477333zM418.26986667 258.22549332999995c-15.81056-1.85685333-28.54912 7.26357333-28.54912 20.49365334 0 13.16181333 11.31861333 26.96533333 27.14282666 28.61738666 18.15893333 1.73397333 29.98272-8.73813333 29.98272-21.96821333C446.83264 272.19285333000005 434.02581333 260.01408000000004 418.26986667 258.22549332999995zM468.18645333 300.75562666999997c-5.35210667-4.00042667-11.94666667-3.45429333-14.77290666 1.35168-2.94912 4.68309333-1.8432 12.19242667 3.57717333 16.12458666 6.28053333 4.66944 12.79317333 3.33141333 15.63306667-1.36533333C475.45002667 312.07424000000003 473.41568 304.87893333 468.18645333 300.75562666999997zM676.93226667 423.77216c6.82666667 0 12.62933333 5.05173333 13.59872 11.63264 0.12288 0.49152 0.17749333 0.92842667 0.17749333 1.47456 10.33557333 92.99285333-76.19925333 76.99114667-76.19925333 76.99114667-7.68682667 0-13.84448-6.21226667-13.84448-13.96736 0-7.63221333 6.15765333-13.84448 13.84448-13.84448 62.16362667 13.7216 48.44202667-48.44202667 48.44202666-48.44202667C662.96490667 429.92981333 669.23178667 423.77216 676.93226667 423.77216zM666.84245333 586.0829866700001c-29.91445333 7.00416-60.68906667 0.96938667-69.30432-0.68266667-0.66901333-0.06826667-1.29706667-0.69632-1.91146666-0.8192-0.30037333-0.05461333-0.47786667-0.36864-0.47786667-0.36864-8.49237333-2.40298667-14.71829333-10.26730667-14.71829333-19.56522667 0-11.07285333 8.98389333-20.19328 20.17962666-20.19328 0 0 10.89536 1.46090667 18.28181334 4.35541334 7.31818667 2.94912 69.29066667 2.19818667 100.07893333-49.49333334 16.7936-37.72416 7.38645333-62.96917333 6.21226667-67.02421333 0 0-4.00042667-9.80309333-4.00042667-19.456 0-11.14112 8.98389333-18.14528 20.11136-18.14528 9.31157333 0 17.12128 1.26976 19.40138667 16.9984l0.12288 0C793.87306667 521.8304 720.39082667 573.59018667 666.84245333 586.0829866700001zM512 875.52C240.54442667 875.52 20.48 655.45557333 20.48 384c0-271.45557333 220.06442667-491.52 491.52-491.52s491.52 220.06442667 491.52 491.52C1003.52 655.45557333 783.45557333 875.52 512 875.52zM512-85.18314667000004C253.29664-85.18314667000004 42.81685333 125.29664000000002 42.81685333 384 42.81685333 642.70336 253.29664 853.18314667 512 853.18314667c258.70336 0 469.18314667-210.46613333 469.18314667-469.18314667C981.18314667 125.29664000000002 770.70336-85.18314667000004 512-85.18314667000004z"  horiz-adv-x="1024" />

    
    <glyph glyph-name="weixindenglu" unicode="&#58888;" d="M512 875.52C240.54442667 875.52 20.48 655.45557333 20.48 384c0-271.45557333 220.06442667-491.52 491.52-491.52 271.45557333 0 491.52 220.06442667 491.52 491.52C1003.52 655.45557333 783.45557333 875.52 512 875.52zM512-80.21333332999995C256.02730667-80.21333332999995 47.78666667 128.02730667000003 47.78666667 384 47.78666667 639.9726933300001 256.02730667 848.21333333 512 848.21333333s464.21333333-208.24064 464.21333333-464.21333333C976.21333333 128.02730667000003 767.97269333-80.21333332999995 512-80.21333332999995zM618.78272 481.04789333c6.92224 0 13.77621333-0.50517333 20.56192-1.26976C620.87168 565.8214399999999 528.87552 629.76 423.86773333 629.76c-117.39136 0-213.56544-80.02218667-213.56544-181.63029333 0-58.65472 31.98976-106.82368 85.45621334-144.1792l-21.35381334-64.25258667 74.65642667 37.43744c26.71957333-5.28384 48.14165333-10.73152 74.80661333-10.73152 6.70378667 0 13.35296 0.32768 19.93386667 0.84650667-4.17792 14.28138667-6.59456 29.23178667-6.59456 44.75562666C437.20704 405.32650667 517.33845333 481.04789333 618.78272 481.04789333zM503.94453333 538.95168c16.08362667 0 26.73322667-10.58133333 26.73322667-26.65130667 0-16.00170667-10.6496-26.73322667-26.73322667-26.73322666-16.00170667 0-32.07168 10.73152-32.07168 26.73322666C471.88650667 528.37034667 487.94282667 538.95168 503.94453333 538.95168zM354.48149333 485.56714667c-16.00170667 0-32.1536 10.73152-32.1536 26.73322666 0 16.06997333 16.15189333 26.65130667 32.1536 26.65130667 16.00170667 0 26.66496-10.58133333 26.66496-26.65130667C381.14645333 496.28501333 370.49685333 485.56714667 354.48149333 485.56714667zM632.29952 469.56544c-101.60810667 0-181.64394667-69.60469333-181.64394667-154.97898667 0-85.53813333 80.03584-154.97898667 181.64394667-154.97898666 21.27189333 0 42.72128 5.36576 64.07509333 10.71786666L754.94741333 138.24l-16.05632 53.37088c42.87146667 32.16725333 74.80661333 74.80661333 74.80661334 122.97557333C813.69770667 399.9744 728.25514667 469.56544 632.29952 469.56544zM573.39904 341.30602667000005c-10.63594667 0-21.36746667 10.58133333-21.36746667 21.36746666 0 10.63594667 10.73152 21.35381333 21.36746667 21.35381334 16.15189333 0 26.73322667-10.71786667 26.73322667-21.35381334C600.13226667 351.88735999999994 589.55093333 341.30602667000005 573.39904 341.30602667000005zM690.87232 341.30602667000005c-10.55402667 0-21.21728 10.58133333-21.21728 21.36746666 0 10.63594667 10.6496 21.35381333 21.21728 21.35381334 16.00170667 0 26.73322667-10.71786667 26.73322667-21.35381334C717.60554667 351.88735999999994 706.87402667 341.30602667000005 690.87232 341.30602667000005z"  horiz-adv-x="1024" />

    
    <glyph glyph-name="qqdenglu" unicode="&#58898;" d="M746.96021333 315.06431999999995L745.36277333 323.61130667 744.09301333 328.00768000000005 742.85056 332.67711999999995 741.21216 337.14176 739.54645333 342.09792000000004 737.62133333 346.76736000000005 735.53237333 351.58698667 731.80501333 359.41034666999997 728.48725333 366.33258666999996 725.18314667 372.50389333 722.30229333 378.25194667000005 718.99818667 383.49482666999995 716.56789333 388.31445333 711.43424 395.49610667 704.96256 405.06709333 703.47434667 407.42912 702.96917333 408.43946667 702.96917333 409.23136 704.04778667 412.4672 705.54965333 415.34805333 706.86037333 421.02784 707.584 423.96330667 707.584 426.99434667 707.95264 429.43829333 707.95264 431.88224 707.584 434.69482667 707.14709333 436.98858667 706.20501333 441.65802667 704.96256 446.17728 703.84298667 450.34154667 702.09536 454.38293333 700.08832 457.75530667 698.53184 460.92288 696.78421333 463.94026667 694.05354667 468.39125333 693.0432 469.97504 692.74282667 471.34037333 691.47306667 479.96928 690.66752 485.64906667 689.73909333 492.69418667 688.30549333 499.95776 686.05269333 508.28629333 684.78293333 512.96938667 683.75893333 516.9152 682.35264 521.5163733300001 680.76885333 526.40426667 679.18506667 530.93717333 677.15072 535.81141333 673.00010667 545.2322133299999 670.55616 549.6831999999999 667.59338667 554.8032000000001 664.82176 559.18592 662.05013333 564.1420800000001 658.13162667 568.74325333 654.81386667 573.19424 650.78613333 577.79541333 646.67648 581.9733333300001 642.52586667 586.00106667 637.62432 590.1653333300001 635.03018667 591.68085333 632.59989333 593.75616 627.28874667 597.4289066700001 621.1584 601.3883733299999 614.90517333 604.96554667 608.4608 608.2013866699999 601.40202667 611.16416 594.78016 613.96309333 587.87157333 616.40704 580.32128 618.42773333 573.44 620.21632 566.09450667 621.78645333 559.14496 623.4385066699999 551.64928 624.2303999999999 544.30378667 625.10421333 536.99925333 626.03264 529.43530667 626.03264 522.13077333 626.03264 515.072 626.03264 507.65824 625.62304 500.66773333 624.66730667 493.73184 623.73888 486.67306667 622.592 479.69621333 621.29493333 473.07434667 619.7111466700001 466.45248 617.62218667 460.30848 615.54688 454.16448 613.53984 447.97952 610.57706667 442.1632 608.2013866699999 437.00224 605.33418667 431.62282667 602.09834667 426.65301333 598.72597333 421.76512 594.91669333 417.72373333 591.3941333299999 411.40224 585.57781333 406.15936 580.1710933300001 401.14858667 574.9418666700001 396.52010667 569.60341333 392.20565333 564.1420800000001 388.41002667 558.83093333 384.72362667 553.50613333 383.01696 551.13045333 381.43317333 548.26325333 377.97888 543.22517333 375.24821333 538.1870933299999 372.81792 533.44938667 370.71530667 528.4113066699999 368.64 523.82378667 366.90602667 519.50933333 365.32224 514.90816 363.7248 510.66197333 361.58122667 502.97514667 360.02474667 495.57504 359.15093333 489.39008 358.27712 484.06528 358.27712 479.96928 358.27712 476.65152 358.27712 473.71605333 356.77525333 472.13226667 355.39626667 469.97504 354.33130667 468.03626667 353.40288 465.94730667 352.24234667 461.4144 350.95893333 457.25013333 350.52202667 453.52277333 350.23530667 450.77845333 350.23530667 447.84298667 347.28618667 443.66506667 345.19722667 439.48714667 343.61344 435.47306667 342.45290667 431.88224 341.55178667 428.42794667 340.67797333 425.19210667 340.67797333 422.46144 340.67797333 419.44405333 340.67797333 416.93184 341.18314667 414.91114667 341.90677333 411.2384 342.82154667 408.43946667 341.18314667 407.22432 336.56832 403.83829333 330.45162667 398.37696 326.71061333 395.15477333 323.05152 391.9872 320.52565333 389.46133333 318.45034667 387.23584 313.99936 382.56640000000004 309.76682667 377.89696000000004 306.44906667 373.86922667 302.4896 368.03925332999995 298.69397333 362.79637333000005 294.96661333 356.9664 291.79904 351.58698667 289.1776 345.83893333000003 286.40597333 340.51413333000005 284.38528 335.27125333000004 282.24170667 329.79626667 280.63061333 324.48512000000005 279.07413333 319.02378667000005 277.69514667 314.27242666999996 276.90325333 309.16607999999997 276.05674667 304.42837333 275.33312 299.82719999999995 274.89621333 290.84330666999995 274.89621333 282.51477333 274.89621333 278.77376000000004 275.33312 275.10101333 276.49365333 268.84778667 276.90325333 266.10346667 277.69514667 263.31818667000005 278.63722667 260.65578667 279.51104 258.78527999999994 280.93098667 255.33098667000002 282.02325333 254.62101332999998 282.67861333 253.17376000000002 283.51146667 252.81877333 284.01664 252.81877333 284.38528 252.81877333 288.05802667 253.17376000000002 291.79904 254.10218667000004 294.96661333 255.33098667000002 298.27072 257.40629333000004 301.27445333 259.35871999999995 304.01877333 261.87093332999996 306.96789333 264.51968 309.46645333 267.264 311.84213333 270.36330667000004 313.99936 273.14858667 316.02005333 275.456 317.28981333 278.11839999999995 319.76106667 282.51477333 320.52565333 284.30336 320.96256 285.38197333000005 321.18101333 286.59712 321.76810667 287.60746667 322.20501333 287.82592 323.05152 288.24917332999996 323.57034667 288.24917332999996 323.7888 287.82592 324.1984 287.82592 324.63530667 287.60746667 326.01429333 281.64095999999995 327.50250667 276.82133333 329.5232 271.78325333 331.54389333 267.264 333.25056 262.73109333 335.872 258.78527999999994 337.79712 254.62101332999998 339.94069333 250.79808000000003 342.45290667 247.50762667000004 344.35072 244.32640000000004 349.36149333 238.44181332999995 353.75786667 233.18528000000003 357.97674667 229.08928000000003 362.16832 225.43018667 365.75914667 222.54933332999997 371.13856 217.87989332999996 373.30944 216.86954666999998 374.03306667 215.8592 374.03306667 215.36767999999995 373.52789333 214.93077332999997 373.30944 214.93077332999997 372.23082667 214.57578666999996 368.20309333 214.27541333 364.44842667 213.78389332999996 361.29450667 213.36064 357.97674667 212.63701332999995 355.10954667 211.76319999999998 352.24234667 210.90304000000003 349.73013333 209.60597332999998 347.72309333 208.39082667000002 345.19722667 207.59893333000002 343.61344 206.30186666999998 341.90677333 205.30517333 340.09088 203.85792000000004 337.79712 201.05898666999997 336.92330667 199.76192000000003 335.872 198.61504000000002 334.42474667 195.67957333000004 333.6192 193.22197332999997 332.67712 190.77802667000003 332.47232 188.62080000000003 332.47232 185.82186666999996 332.47232 184.59306666999998 332.04906667 182.58602667000002 332.04906667 180.56533333000004 331.54389333 178.55829332999997 331.54389333 176.75605333 332.04906667 174.81727999999998 332.47232 173.09695999999997 333.6192 169.71093333 334.42474667 168.1408 335.43509333 166.55701333000002 336.56832 164.98688000000004 337.79712 163.59424 339.43552 162.02410667000004 340.67797333 160.74069333 344.35072 158.07829332999995 348.02346667 155.83914667 352.24234667 153.83210667000003 356.77525333 152.02986667000005 361.58122667 150.09109333000004 366.90602667 148.87594666999996 372.23082667 147.14197333000004 377.97888 145.99509333000003 383.72693333 145.13493332999997 389.61152 144.26112 395.72821333 143.40096000000005 407.7568 142.18581332999997 420.18133333 141.96735999999999 431.62282667 141.96735999999999 437.00224 141.96735999999999 442.1632 141.96735999999999 447.54261333 142.18581332999997 452.15744 142.69098667000003 456.59477333 143.05962666999994 460.78634667 143.40096000000005 467.47648 144.69802667 472.28245333 145.99509333000003 476.89728 147.14197333000004 485.36234667 150.59626666999998 489.18528 152.02986667000005 492.85802667 153.83210667000003 498.8928 157.13621333000003 504.34048 159.79861332999997 508.38186667 162.31082666999998 511.33098667 164.98688000000004 515.93216 164.46805332999998 519.50933333 164.11306666999997 526.56810667 163.59424 529.87221333 163.59424 532.67114667 163.59424 534.81472 163.17098667000005 536.99925333 162.31082666999998 540.45354667 161.08202667 544.30378667 159.79861332999997 551.64928 157.57312000000002 559.14496 154.91071999999997 566.44949333 152.82176000000004 573.79498667 151.38815999999997 581.33162667 149.51765333000003 589.11402667 148.43903999999998 596.48682667 147.64714666999998 603.91424 146.6368 610.82282667 145.99509333000003 618.23658667 145.55818667000005 625.32266667 145.55818667000005 632.23125333 145.55818667000005 638.78485333 145.55818667000005 645.39306667 146.35008000000005 651.8784 146.6368 658.13162667 147.64714666999998 663.86602667 148.87594666999996 669.61408 150.09109333000004 675.14368 151.38815999999997 677.43744 152.02986667000005 679.97696 152.82176000000004 684.78293333 154.69226666999998 689.02912 156.63103999999998 693.0432 158.63807999999995 696.78421333 160.74069333 700.08832 163.17098667000005 701.39904 164.46805332999998 702.96917333 166.25663999999995 704.96256 168.63232000000005 707.14709333 171.59509333000005 707.95264 173.09695999999997 708.30762667 174.31210667000005 709.2224 175.89589333000004 709.57738667 177.62986666999996 709.57738667 179.28192 710.01429333 180.93397332999996 709.57738667 183.37792000000002 709.2224 185.45322667000005 708.30762667 187.89717333 707.584 189.90421332999995 706.20501333 192.34816 704.56661333 194.58730666999998 702.96917333 196.52607999999998 700.81194667 198.17813333000004 696.41557333 201.91914667000003 691.47306667 205.52362667 686.4896 208.39082667000002 681.26037333 211.33994667000002 669.25909333 217.08799999999997 666.37824 218.80831999999998 665.6 219.61386667 665.09482667 220.10538667000003 670.85653333 225.78517333000002 673.36874667 228.58410666999998 675.4304 231.17823999999996 679.47178667 236.85802666999996 683.26741333 242.688 686.4896 247.84896000000003 689.54794667 252.81877333 693.61664 262.73109333 696.78421333 271.00501333 698.88682667 276.82133333 700.08832 278.77376000000004 700.81194667 280.34389333 702.09536 281.28597333000005 702.60053333 281.28597333000005 702.96917333 281.06751999999994 706.05482667 275.10101333 708.79914667 269.33930667000004 710.73792 266.10346667 712.74496 263.31818667000005 714.73834667 259.85024 717.29152 256.47786667 719.43509333 254.10218667000004 720.73216 252.81877333 722.01557333 251.65823999999998 723.17610667 250.79808000000003 724.30933333 250.00618667000003 726.76693333 248.79103999999995 728.05034667 248.36778667 728.91050667 248.36778667 730.05738667 248.36778667 731.36810667 248.79103999999995 732.96554667 249.58293332999995 734.74048 250.37482666999995 736.24234667 251.65823999999998 737.62133333 253.17376000000002 739.17781333 255.03061333000005 740.42026667 256.47786667 741.79925333 258.78527999999994 742.85056 260.65578667 744.09301333 263.31818667000005 744.74837333 265.54368 746.52330667 271.00501333 747.69749333 277.03978667 748.53034667 283.71626667 749.10378667 287.60746667 749.10378667 290.84330666999995 749.10378667 294.2976 749.10378667 298.53013333 748.22997333 306.29888000000005ZM512 875.52C240.54442667 875.52 20.48 655.45557333 20.48 384c0-271.45557333 220.06442667-491.52 491.52-491.52 271.45557333 0 491.52 220.06442667 491.52 491.52C1003.52 655.45557333 783.45557333 875.52 512 875.52zM512-85.18314667000004C253.29664-85.18314667000004 42.81685333 125.29664000000002 42.81685333 384S253.29664 853.18314667 512 853.18314667 981.18314667 642.70336 981.18314667 384 770.70336-85.18314667000004 512-85.18314667000004z"  horiz-adv-x="1024" />

    
    <glyph glyph-name="wodexiaoxi" unicode="&#58885;" d="M965.70026667 157.35466667000003a24.30293333 24.30293333 0 0 1 24.43946666 24.23466666V662.59626667c0 19.38773333-6.21226667 37.34186667-16.45226666 52.15573333-0.47786667 0.68266667-0.54613333 1.4336-1.024 2.048-0.88746667 1.09226667-1.97973333 1.6384-2.93546667 2.52586667a92.50133333 92.50133333 0 0 1-72.56746667 35.2256H126.83946667c-51.33653333 0-92.9792-41.1648-92.9792-91.9552v-557.12426667c0-50.7904 41.64266667-92.02346667 92.9792-92.02346667h770.2528c51.33653333 0 92.9792 41.23306667 92.9792 92.02346667v76.66346667a24.30293333 24.30293333 0 0 1-24.43946667 24.02986666 24.30293333 24.30293333 0 0 1-24.43946667-24.02986666v-71.8848a48.60586667 48.60586667 0 0 0-49.01546666-48.40106667H131.75466667a48.60586667 48.60586667 0 0 0-48.9472 48.40106667V657.74933333c0 2.6624 0.4096 5.18826667 0.8192 7.71413334l427.89546666-345.15626667 0.13653334-0.06826667A25.66826667 25.66826667 0 0 1 524.15146667 315.73333333000005c1.29706667-0.13653333 2.52586667-0.13653333 3.82293333-0.13653333s2.52586667 0 3.75466667 0.13653333a26.07786667 26.07786667 0 0 1 12.56106666 4.43733334l0.06826667 0.06826666 396.42453333 340.992c0.13653333-1.16053333 0.4096-2.32106667 0.4096-3.54986666v-476.29653334c0-13.24373333 10.99093333-24.02986667 24.50773334-24.02986666zM131.75466667 706.1504h760.4224c6.5536 0 12.62933333-1.29706667 18.29546666-3.54986667L527.90613333 372.12159999999994 117.89653333 703.96586667a49.01546667 49.01546667 0 0 0 13.85813334 2.18453333z m0 0"  horiz-adv-x="1024" />

    
    <glyph glyph-name="jiahao" unicode="&#58889;" d="M849.088 720.51413333C758.9088 810.25706667 639.04853333 859.68 511.51573333 859.68c-127.52853333 0-247.4176-49.42186667-337.6-139.1648-90.21653333-89.7728-139.91466667-209.18613333-139.91466666-336.208 0-127.0528 49.69813333-246.42986667 139.87733333-336.2016 90.18453333-89.74186667 210.07573333-139.1648 337.60746667-139.1648 127.53066667 0 247.424 49.42293333 337.57226666 139.1648 90.25173333 89.80266667 139.94453333 209.216 139.9136 336.2368 0.032 127.02506667-49.63093333 246.4-139.88373333 336.1728z m-98.80533333-370.31146666H545.62666667v-204.65386667c0-18.86186667-15.28106667-34.10666667-34.112-34.10666667-18.8224 0-34.10453333 15.2448-34.10453334 34.10666667V350.20266667H272.7584c-18.82453333 0-34.10346667 15.27893333-34.10346667 34.10346666 0 18.82986667 15.27893333 34.112 34.10346667 34.112h204.65386667v204.65066667c0 18.8256 15.28106667 34.10666667 34.10453333 34.10666667 18.83093333 0 34.112-15.28106667 34.112-34.1056v-204.65173334h204.6528c18.8608 0 34.10453333-15.28213333 34.10453333-34.112 0-18.82453333-15.24373333-34.10346667-34.10453333-34.10346666z m0 0"  horiz-adv-x="1024" />

    
    <glyph glyph-name="cuo" unicode="&#58899;" d="M931.835 12.533437499999991l-370.3040625 370.3040625 370.2928125 370.2984375-50.420625 50.420625-370.2928125-370.2984375-370.2928125 370.2984375-50.420625-50.420625 370.2928125-370.2984375-370.2928125-370.2984375 50.420625-50.415 370.2928125 370.2928125 370.3040625-370.2984375z"  horiz-adv-x="1024" />

    
    <glyph glyph-name="jia2" unicode="&#58949;" d="M904.70119467 452.56626347H580.19634347V777.07111467c0 38.30986773-31.0501824 69.3600512-69.3600512 69.3600512s-69.3600512-31.0501824-69.36005014-69.3600512v-324.5048512H116.97139093a69.3600512 69.3600512 0 0 1 0-138.72010134h324.5048512v-324.5048512c0-38.30986773 31.0501824-69.3600512 69.36005014-69.3600512s69.3600512 31.0501824 69.3600512 69.3600512V313.84616213000004h324.49714453a69.3600512 69.3600512 0 0 1 69.36005013 69.36005014 69.34463787 69.34463787 0 0 1-69.35234346 69.3600512z"  horiz-adv-x="1024" />

    
    <glyph glyph-name="zuojiantou-01" unicode="&#58908;" d="M270.357 402.016L692.019 823.677c9.418 9.418 23.192 10.912 30.768 3.337 7.574-7.574 6.08-21.349-3.338-30.767l-411.91-411.908L719.951-28.07c9.418-9.418 10.912-23.194 3.337-30.769-7.574-7.575-21.35-6.08-30.767 3.337L270.858 366.162a29.523 29.523 0 0 0-4.589 5.937c-6.68 7.718-4.994 20.835 4.088 29.917z"  horiz-adv-x="1024" />

    
    <glyph glyph-name="icon-qihuan" unicode="&#58894;" d="M646.10386773 820.12327787L646.10386773-53.21262187000002c0-2.98205121 0.341648-5.8822368 0.9725504-8.6754528a39.42266667 39.42266667 0 0 1 10.7679104-19.65512c13.24785813-13.1769088 33.49240213-15.134016 48.82835094-5.88987733a40.2849728 40.2849728 0 0 1 10.65875733 8.97780587l184.830384 183.8338208c15.56626133 15.4843968 15.56626133 40.59060053 0 56.07717973-15.5717184 15.4843968-40.81327147 15.4843968-56.380624 0L726.50462613 42.822072530000014l0 777.30011414c0 21.9244032-17.9981824 39.6988224-40.19765013 39.6988224-22.20820053 0-40.20310827-17.773328-40.20310827-39.6977312zM378.09915627-53.21262187000002l0 873.33589974a39.38228053 39.38228053 0 0 1-0.89177707 8.32289066 39.37900587 39.37900587 0 0 1-11.05170773 21.09266027c-15.569536 15.485488-40.81327147 15.485488-56.37953174 0L121.8403616 662.6127136c-15.56844373-15.48330453-15.56844373-40.59169173 0-56.07608853 15.56735253-15.48330453 40.81218027-15.48330453 56.380624 0l119.4774112 118.8355936L297.6983968-53.21262187000002c0-21.9244032 17.9981824-39.69664 40.20201707-39.69663999 22.20165119 0 40.1987424 17.77114453 40.1987424 39.69663999z"  horiz-adv-x="1024" />

    
    <glyph glyph-name="zhengzaibofang" unicode="&#59336;" d="M512 896c-282.624 0-512-229.376-512-512s229.376-512 512-512S1024 101.376 1024 384 794.624 896 512 896z m0-958.976c-246.784 0-446.976 200.192-446.976 446.976s200.192 446.976 446.976 446.976c246.784 0 446.976-200.192 446.976-446.976 0-246.784-200.192-446.976-446.976-446.976zM379.392 567.296h85.504v-385.536h-85.504v385.536zM558.592 567.296h85.504v-385.536h-85.504v385.536z"  horiz-adv-x="1030" />

    
    <glyph glyph-name="plus-copy" unicode="&#59193;" d="M857.6 697.6c28.2368 0 51.2-22.9632 51.2-51.2L908.8 0c0-28.2368-22.9632-51.2-51.2-51.2L315.7248-51.200000000000045c-28.2368 0-51.2 22.9632-51.2 51.2L264.5248 646.4c0 28.2368 22.9632 51.2 51.2 51.2L857.6 697.6M857.6 748.8L315.7248 748.8c-56.32 0-102.4-46.08-102.4-102.4L213.3248 0c0-56.32 46.08-102.4 102.4-102.4L857.6-102.39999999999998c56.32 0 102.4 46.08 102.4 102.4L960 646.4C960 702.72 913.92 748.8 857.6 748.8L857.6 748.8zM163.5584 67.84000000000003c-27.4432 0-49.7792 21.824-49.7792 48.64L113.7792 773.12c0 26.816 22.336 48.64 49.7792 48.64l547.5584 0c27.4432 0 49.7792-21.824 49.7792-48.64l49.7792 0c0 53.504-44.8 97.28-99.5584 97.28L163.5584 870.4C108.8 870.4 64 826.624 64 773.12l0-656.64c0-53.504 44.8-97.28 99.5584-97.28l99.5584 0 0 48.64L163.5584 67.84000000000003z"  horiz-adv-x="1024" />

    
    <glyph glyph-name="shangxiajiantou-" unicode="&#58892;" d="M512.038 876l409.638-411.648H102.4L512.038 876z m0-995.328L102.4 292.32000000000005h819.276L512.038-119.32799999999997z"  horiz-adv-x="1024" />

    
    <glyph glyph-name="yanzhengma" unicode="&#58934;" d="M512.035158-128c101.956466 34.50699 197.449829 100.585327 266.639596 196.594333 54.523271 75.553257 98.218062 169.56415 129.806988 279.706431 53.240026 185.572487 53.925595 350.894311 53.925595 357.855476 0.105472 15.791533-11.115599 28.893525-26.080932 30.44631-2.355546 0.205085-241.203216 26.286018-407.228188 153.573392a27.809505 27.809505 0 0 1-34.055804 0C329.908096 763.6210140000001 90.175631 736.813495 87.808366 736.60841c-14.965334-1.459032-26.180545-14.654777-26.180546-30.44631 0-6.961166 0.591816-172.27713 53.931455-357.849617 31.594785-109.925477 75.184104-204.065281 129.806988-279.712291 69.189767-95.909393 164.812041-162.093202 266.668895-196.600192m391.823386 807.249108l-0.105472-1.664117c-2.84775-60.376978-13.189885-181.212969-50.585642-311.623492-65.644729-228.681322-180.199264-374.156792-340.517018-432.348152l-0.591816-0.205085-0.603536 0.205085c-159.813831 58.080028-274.274612 203.033997-340.106847 430.906698-39.165346 135.590381-48.616827 264.119983-50.972374 313.164559l-0.105472 1.658257 1.476611 0.210945c69.476886 10.699569 246.523703 46.542541 389.221738 147.959926l0.884795 0.732446 0.990267-0.732446c142.897261-101.417386 319.944078-137.260357 389.426823-148.071258l1.587943-0.193366zM675.692864 533.328311l-210.69831-227.691055-121.867275 106.761311a34.688637 34.688637 0 0 1-22.389406 8.203394 34.366361 34.366361 0 0 1-26.245-12.058989c-12.305091-14.414535-10.664412-36.335175 3.873174-48.640266l149.641622-130.539433c6.099809-5.162279 14.531726-8.203394 22.975362-8.203394 1.054722 0 2.097725 0 3.158307 0.123051a34.51285 34.51285 0 0 1 23.795701 13.348093l232.835755 256.637316a33.932753 33.932753 0 0 1 6.685766 25.541853c-1.166054 9.146784-5.976758 17.227127-13.242622 22.852311-15.363785 11.713274-37.038323 8.783491-48.523074-6.334192z"  horiz-adv-x="1024" />

    
    <glyph glyph-name="right1" unicode="&#58880;" d="M512-125.72444444999996c281.48622222 0 509.72444445 228.23822222 509.72444445 509.72444445s-228.23822222 509.72444445-509.72444445 509.72444445-509.72444445-228.23822222-509.72444445-509.72444445 228.23822222-509.72444445 509.72444445-509.72444445zM378.08355555 648.53333333c14.22222222 14.22222222 37.31911111 14.22222222 51.54133334 0l239.04711111-238.81955555c14.22222222-14.22222222 14.22222222-37.31911111 0-51.54133333l-238.592-238.70577778c-14.22222222-14.22222222-37.31911111-14.22222222-51.54133333 0s-14.22222222 37.31911111 0 51.54133333l212.992 212.992-213.44711112 212.992c-14.22222222 14.22222222-14.22222222 37.31911111 0 51.54133333z"  horiz-adv-x="1024" />

    
    <glyph glyph-name="dianpu" unicode="&#58891;" d="M1024 529.312c0 2.92-0.416 5.84-1.264 8.648l-70.184 234.88c-6.84 25.32-27.696 102.368-109.208 102.368H177.672c-53.96 0-93.848-37.648-109.064-101.936L1.168 537.64c-0.768-2.72-1.168-5.52-1.168-8.328 0-70.712 38.768-132.424 96.096-165.408v-378.216c0-51.232 41.672-92.888 92.888-92.888h646.024c51.224 0 92.888 41.656 92.888 92.888V363.904C985.232 396.856 1024 458.6 1024 529.312z m-156.568-543.624a32.48 32.48 0 0 0-32.424-32.424H188.984a32.456 32.456 0 0 0-32.416 32.424v356.08c11.136-2.048 22.56-3.248 34.264-3.248 64.912 0 125.648 33.392 160.592 87.688A191.232 191.232 0 0 1 512 338.52c64.96 0 125.784 33.816 160.592 87.752 34.816-53.944 95.6-87.752 160.592-87.752 11.688 0 23.12 1.2 34.248 3.248v-356.08z m-34.256 413.296c-50.464 0-95.464 28.232-117.432 73.696-13.144 27.168-30.704 32.864-43.136 32.864s-30.032-5.696-43.192-32.92c-22.032-45.408-67.024-73.64-117.432-73.64a130.72 130.72 0 0 0-113.672 66.496c-14.944 26.576-33.512 32.152-46.464 32.152-13.096 0-32.096-5.816-48.16-33.568a130.904 130.904 0 0 0-112.872-65.08c-70.536 0-128.16 56.312-130.296 126.32l66.56 232.672c8.936 37.664 25.96 56.768 50.576 56.768h665.664c18.568 0 36.432-4.416 51.048-58.432l69.096-231.184c-2.24-69.96-59.808-126.144-130.288-126.144z"  horiz-adv-x="1024" />

    
    <glyph glyph-name="fenxiang" unicode="&#58895;" d="M803.98571416 403.00714307c-50.35714277-50.12142891-91.56428613-7.65-57.64285723 29.33571445l113.37857139 176.65714248c-177.55714248 3.32142891-282.51428555-62.87142832-327.2785708-122.74285693-32.59285752-43.73571445-52.15714277-145.73571416-58.75714336-172.73571416-5.52857168-22.69285752-23.82857138-37.77857138-46.5000003-34.37142891-24.06428613 5.87142862-37.22142832 42.75-31.3499997 66.75000029 1.13571386 4.65000029 25.11428555 114.17142832 75.25714306 181.26428555 44.05714277 59.05714307 131.18571386 134.59285722 331.94999971 144.85714278L670.57142891 753.96428584c-20.57142832 13.79999971-33.06428613 36.47142862-11.1214292 63.72857109 13.88571416 20.37857167 40.22142891 4.65000029 60.68571415-9.10714307l220.73571476-139.3499997a44.74285752 44.74285752 0 0 0 12.06428554-62.07857139l-148.95-204.1499997z m54.9 205.82142802c-1.90714307-0.34285693-6.04285752-1.11428614 0 0z m0.83571416 0.17142891l-0.83571416-0.17142891a18.53571445 18.53571445 0 0 1 0.83571416 0.17142891zM512 776.52857168C295.55 776.52857168 119.47142832 600.45 119.47142832 384S295.55-8.528571680000027 512-8.528571680000027 904.52857168 167.54999999999995 904.52857168 384a28.71428555 28.71428555 0 0 0 57.4499997 0c0-248.12142891-201.85714248-449.97857138-449.97857138-449.97857138C263.87857109-65.97857137999995 62.02142862 135.87857109000004 62.02142862 384 62.02142862 632.1214289100001 263.87857109 833.97857138 512 833.97857138a28.71428555 28.71428555 0 1 0 0-57.4499997z"  horiz-adv-x="1024" />

    
    <glyph glyph-name="ziyuan" unicode="&#58935;" d="M767.0509956-66a87.42107812 87.42107812 0 0 0-40.21369628 10.05342363L530.5769791 47.21029598999996l-195.82321553-103.15687236a87.42107812 87.42107812 0 0 0-125.44924657 90.91792178l37.59106376 218.55269531L88.22632344 408.25934883a87.42107812 87.42107812 0 0 0 47.6444874 146.86741143l218.55269531 31.90869404L455.39485156 785.91840703a87.42107812 87.42107812 0 0 0 154.73530899 0l97.91160732-198.44584716 218.55269531-31.90869405a87.42107812 87.42107812 0 0 0 47.6444874-147.30451699l-158.66925644-154.73530811 37.59106377-218.55269531a87.42107812 87.42107812 0 0 0-84.79844648-100.97134541zM530.5769791 770.18261279a21.85526953 21.85526953 0 0 1-20.10684814-12.67605615L404.69062695 544.1991254899999A31.90869316 31.90869316 0 0 0 381.08693516 528.0262265599999l-236.03691094-34.09422099a22.72948067 22.72948067 0 0 1-12.67605615-38.90237959l170.47110234-166.537154a31.90869316 31.90869316 0 0 0 9.17921338-27.97474483l-40.21369629-234.72559512a22.72948067 22.72948067 0 0 1 32.7829043-24.04079648l211.12190419 111.02476904a31.90869316 31.90869316 0 0 0 29.72316622 0l211.1219042-111.02476904a22.72948067 22.72948067 0 0 1 32.78290429 24.04079648l-40.21369628 234.72559512a31.90869316 31.90869316 0 0 0 9.17921337 27.97474482l170.47110234 166.53715401a22.72948067 22.72948067 0 0 1-12.67605615 38.90237959L680.50412862 528.0262265599999a31.90869316 31.90869316 0 0 0-24.04079649 17.48421563l-105.34239932 211.99611445a21.85526953 21.85526953 0 0 1-20.5439537 12.67605615z"  horiz-adv-x="1066" />

    
    <glyph glyph-name="tupian" unicode="&#59315;" d="M766.112 606.112s103.328 1.024 103.328-101.28c0 0 9.568-99.04-103.328-101.216 0 0-101.152-2.176-100.128 101.216 0.032 0.064-1.088 91.744 100.128 101.28z m203.552 155.616S1024.032 757.472 1024.032 709.536v-714.912s-3.232-51.136-54.368-52.256v819.36zM0-5.44s2.176-52.256 52.256-52.256h917.408V93.6h-100l-203.68 206.752-153.44-154.432L303.712 403.68 98.08 95.712l-45.76-1.024-1.152 614.752H0.032l-0.032-714.88z m969.664 767.168H52.256S0 762.816 0 709.536h969.664v52.192z"  horiz-adv-x="1024" />

    
    <glyph glyph-name="rili" unicode="&#59550;" d="M948.90666667 456.81777778H75.09333333v-509.67589888l543.5604389-0.02427335L948.90666667-52.85812109999995V456.81777778z m0 48.54518556V748.04034333C948.90666667 748.08888889 803.27111111 748.08888889 803.27111111 748.08888889V796.63407445h145.68410112A48.54518557 48.54518557 0 0 0 997.45185223 748.04034333v-800.89846443A48.49664 48.49664 0 0 0 948.97948445-101.45185222999999H75.02051555A48.54518557 48.54518557 0 0 0 26.54814777-52.85812109999995V748.04034333C26.54814777 774.8615589 48.07793778 796.63407445 75.04478777 796.63407445H220.72888889v-48.54518556l-145.63555556-0.04854556V505.36296334h873.81333334zM269.27407445 869.45185223h48.54518443v-194.18074112h-48.54518443V869.45185223z m436.90666667 0h48.54518443v-194.18074112h-48.54518443V869.45185223zM366.36444445 796.63407445h291.2711111v-48.54518556H366.36444445V796.63407445z"  horiz-adv-x="1024" />

    
    <glyph glyph-name="che" unicode="&#58971;" d="M787.2 640H704V704c0 36.266667-27.733333 64-64 64H64C27.733333 768 0 740.266667 0 704v-554.666667c0-36.266667 27.733333-64 64-64h66.133333c10.666667-49.066667 53.333333-85.333333 104.533334-85.333333s93.866667 36.266667 104.533333 85.333333h302.933333c10.666667-49.066667 53.333333-85.333333 104.533334-85.333333 51.2 0 93.866667 36.266667 104.533333 85.333333H960c36.266667 0 64 27.733333 64 64V454.4c0 12.8-6.4 25.6-17.066667 34.133333l-181.333333 138.666667c-10.666667 8.533333-25.6 12.8-38.4 12.8zM42.666667 704c0 12.8 8.533333 21.333333 21.333333 21.333333h576c12.8 0 21.333333-8.533333 21.333333-21.333333v-362.666667H42.666667V704z m192-661.333333c-36.266667 0-64 27.733333-64 64s27.733333 64 64 64 64-27.733333 64-64-27.733333-64-64-64z m512 0c-36.266667 0-64 27.733333-64 64s27.733333 64 64 64 64-27.733333 64-64-27.733333-64-64-64z m234.666666 106.666666c0-12.8-8.533333-21.333333-21.333333-21.333333h-108.8c-10.666667 49.066667-53.333333 85.333333-104.533333 85.333333-51.2 0-93.866667-36.266667-104.533334-85.333333H339.2c-10.666667 49.066667-53.333333 85.333333-104.533333 85.333333s-93.866667-36.266667-104.533334-85.333333H64c-12.8 0-21.333333 8.533333-21.333333 21.333333v149.333334h938.666666v-149.333334z m0 192H704V597.333333h64c14.933333 0 27.733333-4.266667 38.4-12.8l157.866667-121.6c10.666667-8.533333 17.066667-21.333333 17.066666-34.133333V341.33333300000004z"  horiz-adv-x="1024" />

    
    <glyph glyph-name="shanchu" unicode="&#58893;" d="M670.39573333 543.1168h52.98133334v-423.82933333h-52.98133334v423.82933333z m-132.44586666-423.82933333v423.82933333H484.97066667v-423.82933333h26.48853333z m-238.40426667 423.82933333h52.98133333v-423.82933333h-52.98133333v423.82933333z m423.83146667 158.9344v105.95733333c0 29.12746667-23.82826667 52.97813333-52.98133334 52.97813334H352.52586667c-29.15306667 0-52.98026667-23.85066667-52.98026667-52.97813334v-105.95733333H34.65386667v-52.9792h105.95946666v-688.72106667c0-29.1296 23.82293333-52.9792 52.97706667-52.9792h635.74186667c29.15413333 0 52.98133333 23.85066667 52.98133333 52.9792V649.07306667h105.9552v52.9792H723.37706667z m-370.8512 105.95733333h317.86986666v-105.95733333H352.52586667v105.95733333zM829.3312-39.648000000000025H193.58933333V649.07306667h635.74186667V-39.648000000000025z"  horiz-adv-x="1024" />

    
    <glyph glyph-name="dui" unicode="&#59170;" d="M512 869.45185173C245.0014816 869.45185173 26.54814827 650.9985184 26.54814827 384s218.45333333-485.45185173 485.45185173-485.45185173 485.45185173 218.45333333 485.45185173 485.45185173-218.45333333 485.45185173-485.45185173 485.45185173m0-910.22222186c-236.65777813 0-424.77037013 188.11259307-424.77037013 424.77037013s188.11259307 424.77037013 424.77037013 424.77037013 424.77037013-188.11259307 424.77037013-424.77037013-188.11259307-424.77037013-424.77037013-424.77037013M308.17090347 433.2733632l214.5697184-214.5697184-42.90180694-42.901808-214.5697184 214.5697184zM739.7376 524.59899307l42.90180693-42.901808-300.37333333-300.37333334-42.90180693 42.901808z"  horiz-adv-x="1024" />

    
    <glyph glyph-name="erjikefu" unicode="&#58966;" d="M512 805.875C279.96875 805.875 90.125 616.03125 90.125 384v-421.875h158.203125v263.671875H142.859375V384c0 205.6640625 163.4765625 369.140625 369.140625 369.140625s369.140625-163.4765625 369.140625-369.140625v-158.203125h-105.46875v-263.671875h158.203125V384c0 232.03125-189.84375 421.875-421.875 421.875zM148.1328125 167.7890625h42.1875v-147.65625h-42.1875v147.65625z m727.734375-147.65625h-42.1875v147.65625h42.1875v-147.65625z"  horiz-adv-x="1024" />

    
    <glyph glyph-name="gengduo" unicode="&#59161;" d="M257.13777778 384m-72.81777778 0a72.81777778 72.81777778 0 1 1 145.63555555 0 72.81777778 72.81777778 0 1 1-145.63555555 0ZM512 384m-72.81777778 0a72.81777778 72.81777778 0 1 1 145.63555556 0 72.81777778 72.81777778 0 1 1-145.63555556 0ZM766.86222222 384m-72.81777777 0a72.81777778 72.81777778 0 1 1 145.63555555 0 72.81777778 72.81777778 0 1 1-145.63555555 0Z"  horiz-adv-x="1024" />

    
    <glyph glyph-name="ico_search" unicode="&#58983;" d="M830.73138357 108.01159726000003c5.79751666-2.58253006 11.17339563-6.21915436 15.91681806-10.90987124l37.26221979-37.26222062a52.70469544 52.70469544 0 0 0-74.5771443-74.57714429l-37.26221978 37.26221979a52.49387659 52.49387659 0 0 0-12.54371732 20.02778476 421.63756513 421.63756513 0 1 0 71.15133884 65.40652689zM511.76256512 14.829695440000023A368.93286968 368.93286968 0 1 1 511.76256512 752.69543482a368.93286968 368.93286968 0 0 1 0-737.86573938z"  horiz-adv-x="1024" />

    
    <glyph glyph-name="video" unicode="&#58911;" d="M960 704h-28.384c-16.8 0-32.928-6.624-44.928-18.432L800 600.0640000000001V640a96 96 0 0 1-96 96H96C43.072 736 0 692.96 0 640v-512a96 96 0 0 1 96-96h608c52.992 0 96 43.008 96 96v39.072l86.688-85.504c12-11.808 28.128-18.432 44.928-18.432H960a64 64 0 0 1 64 64V640a64 64 0 0 1-64 64zM96 96c-17.664 0-32 14.368-32 32V640a32 32 0 0 0 32 32h608c17.632 0 32-14.336 32-32v-512c0-17.632-14.368-32-32-32H96z m864 31.136h-32l-128 128V256l-32 32v192l160 160h32v-512.864z"  horiz-adv-x="1024" />

    
    <glyph glyph-name="wode1" unicode="&#59235;" d="M512 435.2c93.86666667 0 170.66666667 76.8 170.66666667 170.66666667s-76.8 170.66666667-170.66666667 170.66666666-170.66666667-76.8-170.66666667-170.66666666 76.8-170.66666667 170.66666667-170.66666667z m-148.48-17.06666667C308.90666667 462.50666667 273.06666667 529.06666667 273.06666667 605.86666667c0 131.41333333 107.52 238.93333333 238.93333333 238.93333333s238.93333333-107.52 238.93333333-238.93333333c0-75.09333333-35.84-143.36-90.45333333-187.73333334C831.14666667 368.64 955.73333333 211.62666666999996 955.73333333 25.600000000000023c0-56.32-46.08-102.4-102.4-102.4H170.66666667c-56.32 0-102.4 46.08-102.4 102.4 0 186.02666667 124.58666667 343.04 295.25333333 392.53333333zM853.33333333-8.533333330000005c18.77333333 0 34.13333333 15.36 34.13333334 34.13333333 0 187.73333333-153.6 341.33333333-341.33333334 341.33333333h-68.26666666c-187.73333333 0-341.33333333-153.6-341.33333334-341.33333333 0-18.77333333 15.36-34.13333333 34.13333334-34.13333333h682.66666666z"  horiz-adv-x="1024" />

    
    <glyph glyph-name="shaixuan" unicode="&#58896;" d="M148.13866667 746.66666666l271.01866666-283.648a34.13333333 34.13333333 0 0 0-49.49333333-47.104l-325.97333333 341.33333334A34.13333333 34.13333333 0 0 0 68.26666667 814.93333333h853.33333333a34.13333333 34.13333333 0 0 0 24.576-57.68533333l-325.97333333-341.33333334a34.13333333 34.13333333 0 0 0-49.49333334 47.104L841.728 746.66666666zM375.46666667 439.46666666a34.13333333 34.13333333 0 0 0 68.26666666 0v-341.33333333a34.13333333 34.13333333 0 0 0-68.26666666 0z m204.8 0a34.13333333 34.13333333 0 0 0 68.26666666 0v-477.86666666a34.13333333 34.13333333 0 0 0-68.26666666 0z"  horiz-adv-x="1024" />

    
    <glyph glyph-name="xiaoxi2" unicode="&#59037;" d="M879.5 729.1875c13.875 0 27.09375-5.53125 37.03125-15.46875C926.46875 703.6875 932 690.5625 932 676.6875V240.5625c0-13.875-5.53125-27.09375-15.46875-37.03125-9.9375-9.9375-23.15625-15.46875-37.03125-15.46875H573.125c-11.25 0-22.21875-3-31.96875-8.625l-2.25-1.3125-2.15625-1.5-154.03125-108V124.3125c0 35.15625-28.59375 63.75-63.75 63.75H144.5c-13.875 0-27.09375 5.53125-37.03125 15.46875C97.53125 213.5625 92 226.6875 92 240.5625V676.6875c0 13.875 5.53125 27.09375 15.46875 37.03125 9.9375 9.9375 23.15625 15.46875 37.03125 15.46875h735m0 60H144.5c-61.875 0-112.5-50.625-112.5-112.5V240.5625c0-61.875 50.625-112.5 112.5-112.5h174.46875c2.0625 0 3.75-1.6875 3.75-3.75v-117.28125c0-16.3125 13.40625-28.125 28.125-28.125 4.21875 0 8.625 1.03125 12.84375 3.09375l207.5625 145.59375c0.5625 0.375 1.21875 0.46875 1.875 0.46875H879.5c61.875 0 112.5 50.625 112.5 112.5V676.6875c0 61.875-50.625 112.5-112.5 112.5zM452 444a60 58.5 0 1 1 120 0 60 58.5 0 1 1-120 0ZM231.875 444a60 58.5 0 1 1 120 0 60 58.5 0 1 1-120 0ZM671.84375 444a60 58.5 0 1 1 120 0 60 58.5 0 1 1-120 0Z"  horiz-adv-x="1024" />

    
    <glyph glyph-name="tubiaozhizuo-" unicode="&#58886;" d="M512 217.12c-184.36 0-333.79 57.33-333.79 149.49v-93.86c0-92.17 149.44-166.87 333.79-166.87s333.72 74.7 333.72 166.87v93.86c0.04-92.16-149.36-149.49-333.72-149.49z m0-166.87c-184.36 0-333.79 57.33-333.79 149.49v-93.86C178.24 13.700000000000045 327.68-61 512-61s333.72 74.7 333.72 166.87v93.86c0.04-92.15-149.36-149.49-333.72-149.49zM512 384c-184.36 0-333.79 57.32-333.79 149.49v-93.87c0-92.16 149.44-166.87 333.79-166.87s333.72 74.72 333.72 166.87v93.87C845.76 441.32 696.36 384 512 384z m0 445c-184.36 0-333.79-74.71-333.79-166.88v-55.62c0-92.17 149.44-166.88 333.79-166.88s333.76 74.71 333.76 166.88v55.62C845.76 754.29 696.36 829 512 829z"  horiz-adv-x="1024" />

    
    <glyph glyph-name="shouhuodizhi-" unicode="&#58950;" d="M494.29333333 632.8533333299999c-98.88 0-179.30666667-80.42666667-179.30666666-179.30666667s80.42666667-179.30666667 179.30666666-179.30666666 179.30666667 80.42666667 179.30666667 179.30666666-80.42666667 179.30666667-179.30666667 179.30666667z m0-294.50666667c-63.57333333 0-115.30666667 51.73333333-115.30666666 115.30666667s51.73333333 115.30666667 115.30666666 115.30666667c63.57333333 0 115.30666667-51.73333333 115.30666667-115.30666667S557.86666667 338.34666666 494.29333333 338.34666666zM865.38666667 610.34666666c-20.26666667 48-49.28 90.98666667-86.29333334 128s-80 66.02666667-128 86.29333334c-49.70666667 21.01333333-102.4 31.68-156.8 31.68s-107.09333333-10.66666667-156.8-31.68c-48-20.26666667-90.98666667-49.28-128-86.29333334s-66.02666667-80-86.29333333-128c-21.01333333-49.70666667-31.68-102.4-31.68-156.8 0-53.01333333 13.97333333-109.54666667 41.38666667-168.10666666 22.72-48.32 54.82666667-98.45333333 95.46666666-149.01333334C313.28 30.933333329999982 407.04-42.66666667000004 433.81333333-62.613333340000054c17.28-12.90666667 39.25333333-19.41333333 61.12-19.41333333 22.08 0 44.05333333 6.61333333 61.01333334 19.73333333 35.73333333 27.62666667 127.14666667 102.61333333 205.97333333 200.74666667C851.52 250.13333333000003 897.06666667 356.15999999999997 897.06666667 453.65333333c0 54.29333333-10.66666667 107.09333333-31.68 156.69333333zM516.69333333-11.626666669999963c-10.88-8.42666667-32.96-8.32-44.48 0.32-51.94666667 38.93333333-130.24 108.8-193.92 187.94666667-80.32 99.84-122.77333333 195.62666667-122.77333333 277.01333333 0 186.77333333 152 338.77333333 338.77333333 338.77333333S833.06666667 640.42666666 833.06666667 453.65333333c0-209.49333333-263.57333333-424.42666667-316.37333334-465.28z"  horiz-adv-x="1024" />

    
    <glyph glyph-name="kong" unicode="&#59032;" d="M456.597204 8.599164V9.999155v-1.399991z m56.199656 57.499648c-30.899811 0-56.199656-24.799848-56.199656-56.099657v-0.699996c0-6.399961 4.89997-11.39993 11.199932-11.39993 6.299961 0 11.199931 4.999969 11.199931 11.39993v0.699996c0 18.499887 14.69991 34.099791 33.699794 34.099791 18.999884 0 33.699794-15.599904 33.699793-34.099791v-0.699996c0-6.399961 4.89997-11.39993 11.199932-11.39993 6.299961 0 11.199931 4.999969 11.199931 11.39993v0.699996c0.199999 30.599813-25.099846 56.099656-55.999657 56.099657zM382.19766 186.498074c-15.499905 3.599978-38.599764 2.799983-43.499734-13.499917-2.799983-9.899939 13.299919-11.39993 28.099828-14.899909 11.899927-2.799983 18.299888-9.199944 16.899897-11.39993-2.799983-3.599978-20.399875 3.499979-36.499777-2.099987-15.499905-5.699965-12.599923-19.899878-3.499978-23.399857 9.099944-3.599978 23.899854 0.699996 58.299643-4.999969 17.599892-2.799983 28.099828 2.799983 30.199815 13.499917 3.999976 24.099852-28.299827 51.799683-49.999694 56.799652zM591.496378 128.998426c2.099987-10.599935 11.899927-16.2999 30.199815-13.499917 34.399789 5.699965 49.199699 1.399991 58.299643 4.999969 9.099944 3.499979 11.899927 18.499887-3.499978 23.399857-15.499905 5.699965-32.999798-1.399991-36.499777 2.099987-2.099987 2.799983 4.89997 9.199944 16.899897 12.099926 14.69991 3.599978 30.899811 4.999969 28.099828 14.899909-4.89997 16.2999-27.399832 16.999896-43.499734 13.499917-21.899866-4.999969-54.299668-32.6998-49.999694-57.499648z m420.697424 296.698184L816.894998 607.395497c-6.299961 6.399961-15.499905 9.199944-24.599849 9.199944H232.598576c-9.099944 0-17.599892-3.499979-23.899854-9.199944L11.999927 425.69661C4.299974 418.596653 0.099999 409.396709 0.099999 398.696775v-445.097275c0-44.699726 35.799781-81.5995 80.799506-81.5995h862.494719c44.199729 0 80.799505 36.899774 80.799505 81.5995V398.696775c-0.099999 9.999939-4.999969 19.899878-11.999927 26.999835z m-352.597841 2.799983c-12.599923 0-23.199858-10.599935-23.199858-24.099853 0-66.699592-56.199656-122.799248-122.899247-122.799248s-122.899247 56.099656-122.899248 122.799248c0 12.799922-10.499936 24.099852-23.199858 24.099853H93.499427l146.099106 134.899174H785.995187l144.699114-134.899174H659.595961zM969.994061 380.296888v-426.597388c0-15.599904-11.899927-26.999835-26.699837-26.999835H80.899505c-15.499905 0-28.099828 12.099926-28.099828 26.999835V380.296888H344.997888c5.599966-36.899774 23.199858-71.699561 51.299685-97.9994 32.299802-31.199809 73.699549-47.599709 117.299282-47.599709 43.499734 0 84.99948 16.999896 117.299282 47.599709 27.399832 26.999835 45.69972 60.999626 51.299686 97.9994H969.994061zM246.298492 692.494976L157.199037 777.994453c-9.499942 9.199944-9.899939 24.399851-0.799995 34.099791 9.099944 9.599941 24.199852 9.999939 33.699794 0.799995l88.999455-85.499477c9.599941-9.199944 9.899939-24.399851 0.899995-34.099791-9.099944-9.599941-24.099852-9.999939-33.699794-0.799995m245.498497 37.799769c-4.599972 4.399973-7.199956 10.499936-7.399955 16.799897l-3.19998 124.09924C480.897055 884.5938 491.296992 895.593732 504.396912 895.99373c13.199919 0.299998 24.099852-10.199938 24.49985-23.499856l3.099981-124.09924c0.199999-9.699941-5.299968-18.699885-14.099914-22.599862-8.699947-3.999976-18.999884-2.199987-26.09984 4.499973m231.098585-33.399796c-4.599972 4.399973-7.299955 10.499936-7.399955 16.899897-0.199999 6.399961 2.199987 12.599923 6.49996 17.199894l84.599482 90.099449c9.099944 9.599941 24.199852 9.999939 33.699794 0.799995 9.499942-9.199944 9.899939-24.399851 0.799995-34.099791l-84.599482-90.099449c-4.399973-4.599972-10.399936-7.299955-16.699898-7.499954-6.199962 0-12.299925 2.299986-16.899896 6.699959"  horiz-adv-x="1024" />

    
    <glyph glyph-name="xiaoxi" unicode="&#59200;" d="M347.554694-62.70897100000002a34.381042 34.381042 0 0 0-15.352663 3.61534 34.375925 34.375925 0 0 0-19.009959 30.746259V101.04867300000001C161.80006 165.77176699999995 65.290005 298.866041 65.290005 445.845557c0 212.214263 200.384843 384.864438 446.708972 384.864438S958.708971 658.0598190000001 958.708971 445.845557c0-208.857818-194.093557-379.385657-435.048397-384.729362L368.208083-55.804723999999965a34.305317 34.305317 0 0 0-20.653389-6.904247z m164.445306 824.693721c-208.42189 0-377.98475-141.820006-377.98475-316.139193 0-125.050064 88.506776-238.598166 225.469148-289.285593 13.472849-4.983501 22.432918-17.844413 22.432918-32.222889v-83.833337l109.429295 82.306565a34.362622 34.362622 0 0 0 20.654412 6.904247c208.42189 0 377.98475 141.820006 377.984751 316.131007C889.98475 620.1647439999999 720.42189 761.98475 512 761.98475zM490.388796 220.82973300000003c-124.697023 0-226.391147 74.748425-272.045952 199.940729l80.704066 29.429263c33.238009-91.174536 102.986559-143.464459 191.341886-143.46446v-85.905532z"  horiz-adv-x="1024" />

    
    <glyph glyph-name="shezhi" unicode="&#58998;" d="M931.84 259.41333333c-6.82666667 22.18666667-20.48 40.96-40.96 52.90666667l-58.02666667 34.13333333c1.70666667 13.65333333 1.70666667 25.6 1.70666667 37.54666667 0 11.94666667 0 23.89333333-1.70666667 37.54666667l58.02666667 34.13333333c42.66666667 23.89333333 56.32 78.50666667 32.42666667 119.46666667l-39.25333334 68.26666666c-11.94666667 20.48-30.72 34.13333333-52.90666666 40.96-22.18666667 6.82666667-46.08 3.41333333-66.56-8.53333333l-58.02666667-32.42666667c-20.48 15.36-42.66666667 27.30666667-64.85333333 37.54666667v66.56c0 47.78666667-39.25333333 88.74666667-88.74666667 88.74666667h-78.50666667c-47.78666667 0-88.74666667-39.25333333-88.74666666-88.74666667v-66.56c-23.89333333-10.24-46.08-22.18666667-64.85333334-37.54666667l-58.02666666 32.42666667c-42.66666667 23.89333333-95.57333333 10.24-119.46666667-32.42666667l-39.25333333-68.26666666c-11.94666667-20.48-15.36-44.37333333-8.53333334-66.56 6.82666667-22.18666667 20.48-40.96 40.96-52.90666667l58.02666667-34.13333333c-1.70666667-13.65333333-1.70666667-25.6-1.70666667-37.54666667 0-11.94666667 0-23.89333333 1.70666667-37.54666667l-58.02666667-34.13333333c-20.48-11.94666667-34.13333333-30.72-40.96-52.90666667-8.53333333-22.18666667-5.12-46.08 6.82666667-66.56l39.25333333-68.26666666c11.94666667-20.48 30.72-34.13333333 52.90666667-40.96 22.18666667-6.82666667 46.08-3.41333333 66.56 8.53333333l58.02666667 32.42666667c20.48-15.36 42.66666667-27.30666667 64.85333333-37.54666667v-66.56c0-47.78666667 39.25333333-88.74666667 88.74666667-88.74666667h78.50666666c47.78666667 0 88.74666667 39.25333333 88.74666667 88.74666667v66.56c23.89333333 10.24 46.08 22.18666667 64.85333333 37.54666667l58.02666667-32.42666667c20.48-11.94666667 44.37333333-15.36 66.56-8.53333333 22.18666667 6.82666667 40.96 20.48 52.90666667 40.96l39.25333333 68.26666666c11.94666667 20.48 15.36 44.37333333 10.24 66.56z m-52.90666667-40.96l-39.25333333-68.26666666c-5.12-8.53333333-13.65333333-13.65333333-22.18666667-17.06666667-10.24-1.70666667-18.77333333-1.70666667-27.30666666 3.41333333l-61.44 35.84c-15.36 8.53333333-34.13333333 6.82666667-49.49333334-3.41333333-18.77333333-13.65333333-39.25333333-25.6-61.44-35.84-17.06666667-6.82666667-27.30666667-23.89333333-27.30666666-40.96v-71.68c0-20.48-17.06666667-37.54666667-37.54666667-37.54666667h-78.50666667c-20.48 0-37.54666667 17.06666667-37.54666666 37.54666667v71.68c0 18.77333333-10.24 34.13333333-27.30666667 40.96-22.18666667 8.53333333-42.66666667 20.48-61.44 35.84-8.53333333 6.82666667-17.06666667 8.53333333-27.30666667 8.53333333-6.82666667 0-15.36-1.70666667-22.18666666-5.12l-61.44-35.84c-8.53333333-5.12-18.77333333-6.82666667-27.30666667-3.41333333s-17.06666667 8.53333333-22.18666667 17.06666667l-39.25333333 68.26666666c-5.12 8.53333333-6.82666667 18.77333333-3.41333333 27.30666667 1.70666667 10.24 8.53333333 17.06666667 17.06666666 22.18666667l61.44 35.84c15.36 8.53333333 23.89333333 25.6 22.18666667 44.37333333-1.70666667 11.94666667-1.70666667 23.89333333-1.70666667 35.84s0 22.18666667 1.70666667 35.84c1.70666667 17.06666667-5.12 35.84-22.18666667 44.37333333l-61.44 35.84c-8.53333333 5.12-15.36 13.65333333-17.06666666 22.18666667s-1.70666667 18.77333333 3.41333333 27.30666667l39.25333333 68.26666666c10.24 17.06666667 32.42666667 23.89333333 49.49333334 13.65333334l61.44-35.84c15.36-8.53333333 34.13333333-6.82666667 49.49333333 3.41333333 18.77333333 13.65333333 39.25333333 25.6 61.44 35.84 17.06666667 6.82666667 27.30666667 23.89333333 27.30666667 40.96v71.68c0 20.48 17.06666667 37.54666667 37.54666666 37.54666667h78.50666667c20.48 0 37.54666667-17.06666667 37.54666667-37.54666667v-71.68c0-18.77333333 10.24-34.13333333 27.30666666-40.96 22.18666667-8.53333333 42.66666667-20.48 61.44-35.84 13.65333333-10.24 34.13333333-11.94666667 49.49333334-3.41333333l61.44 35.84c17.06666667 10.24 39.25333333 3.41333333 49.49333333-13.65333334l39.25333333-68.26666666c10.24-17.06666667 3.41333333-39.25333333-13.65333333-49.49333334L802.13333333 464.21333333c-15.36-8.53333333-23.89333333-25.6-22.18666666-44.37333333 1.70666667-11.94666667 1.70666667-23.89333333 1.70666666-35.84 0-11.94666667 0-22.18666667-1.70666666-35.84-1.70666667-18.77333333 5.12-35.84 22.18666666-44.37333333l61.44-35.84c8.53333333-5.12 13.65333333-13.65333333 17.06666667-22.18666667 3.41333333-8.53333333 1.70666667-18.77333333-1.70666667-27.30666667zM512 546.13333333c-88.74666667 0-162.13333333-73.38666667-162.13333333-162.13333333s73.38666667-162.13333333 162.13333333-162.13333333 162.13333333 73.38666667 162.13333333 162.13333333c0 90.45333333-71.68 162.13333333-162.13333333 162.13333333z m0-273.06666666c-61.44 0-110.93333333 49.49333333-110.93333333 110.93333333s49.49333333 110.93333333 110.93333333 110.93333333 110.93333333-49.49333333 110.93333333-110.93333333-49.49333333-110.93333333-110.93333333-110.93333333z"  horiz-adv-x="1024" />

    
    <glyph glyph-name="shuaxin" unicode="&#59047;" d="M512-23.552c-224.768 0-407.552 182.784-407.552 407.552 0 8.704 0.512 17.408 1.024 26.112l71.68-4.608c-0.512-7.168-0.512-14.336-0.512-21.504 0-185.344 150.528-335.872 335.872-335.872 86.528 0 168.448 32.768 230.912 92.16l49.152-52.224c-76.288-72.192-175.616-111.616-280.576-111.616zM919.552 384h-71.68c0 11.776-0.512 23.552-2.048 35.328-17.92 171.52-161.28 300.544-334.336 300.544-67.584 0-132.096-19.968-187.904-57.344L284.16 721.92C351.232 767.488 430.08 791.552 512 791.552c209.408 0 384-156.672 405.504-365.056 1.536-13.824 2.048-28.16 2.048-42.496zM140.288 605.184L28.16 404.48c-3.072-5.12 1.024-11.776 6.656-11.776h223.744c6.144 0 9.728 6.144 6.656 11.776L153.6 605.184c-3.072 5.632-10.752 5.632-13.312 0zM870.4 220.16l-112.128 200.704c-3.072 5.12 1.024 11.776 6.656 11.776h223.744c6.144 0 9.728-6.144 6.656-11.776L883.712 220.16c-2.56-5.12-10.24-5.12-13.312 0zM270.336 693.76a35.84 35.84 0 1 1 71.68 0 35.84 35.84 0 1 1-71.68 0ZM728.576 111.104a35.84 35.84 0 1 1 71.68 0 35.84 35.84 0 1 1-71.68 0Z"  horiz-adv-x="1024" />

    
    <glyph glyph-name="shang" unicode="&#59282;" d="M507.22133333 230.91200000000003l379.904 365.568c13.824 13.824 36.352 13.824 50.176 0s13.824-35.84 0-49.664l-404.99200001-400.896c-13.824-13.824-36.352-13.824-50.17599999 0l-404.992 400.89600001c-13.824 13.824-13.824 35.84 0 49.66399999s36.352 13.824 50.176 0l379.904-365.568z"  horiz-adv-x="1024" />

    
    <glyph glyph-name="jiantou" unicode="&#58948;" d="M315.9728 799.8288l433.5264-433.5264v33.936a18607034.4 18607034.4 0 0 1-435.2736-435.2736c-21.9024-21.9024 12.0336-55.848 33.9408-33.936 145.0896 145.0896 290.184 290.1792 435.2688 435.2736 9.2496 9.2448 9.2496 24.696 0 33.936L349.9136 833.7744c-21.9072 21.9024-55.8432-12.0384-33.9408-33.9456z"  horiz-adv-x="1024" />

    
    <glyph glyph-name="youhuiquan" unicode="&#59026;" d="M939.19763001 306.32770332999996v-233.0168889a38.83614777 38.83614777 0 0 0-38.83614891-38.83614776H123.6385189a38.83614777 38.83614777 0 0 0-38.83614891 38.83614776v233.0168889a77.67229667 77.67229667 0 1 1 0 155.34459334V694.6891855700001a38.83614777 38.83614777 0 0 0 38.83614891 38.83614776h776.7229622a38.83614777 38.83614777 0 0 0 38.83614891-38.83614776v-233.0168889a77.67229667 77.67229667 0 1 1 0-155.34459334z m-77.67229668-38.83614778c-35.10787755 19.41807445-77.67229667 48.81703822-77.67229667 116.50844445s42.56441799 97.09036999 77.67229667 116.50844445V655.85303666H162.47466667v-155.34459221c38.83614777-19.41807445 77.67229667-52.97250645 77.67229667-116.50844445s-38.83614777-97.09036999-77.67229667-116.50844445v-155.34459221h699.05066666v155.34459221z m-504.86992554 271.85303666h77.67229554v-310.68918442h-77.67229554v310.68918442z"  horiz-adv-x="1024" />

    
    <glyph glyph-name="wode" unicode="&#58905;" d="M512 371.18407111c-141.55776 0-256.90112 115.34336-256.90112 256.90112S370.44224 884.98631111 512 884.98631111s256.90112-115.34336 256.90112-256.90112-115.34336-256.90112-256.90112-256.90112zM512 820.90666667c-106.31395555 0-192.82147555-86.50752-192.82147555-192.82147556s86.50752-192.82147555 192.82147555-192.82147556 192.82147555 86.50752 192.82147555 192.82147556S618.31395555 820.90666667 512 820.90666667zM990.55843555-116.98631110999997H33.44156445l-2.03889778 29.70965333c-0.87381333 10.19448889-1.16508445 20.68024889-1.16508445 31.16600889 0 251.65824 216.12316445 456.13056 481.76241778 456.13056s481.76241778-204.76359111 481.76241778-456.13056c0-10.48576-0.29127111-20.97152-1.16508445-31.16600889l-2.03889778-29.70965333zM94.31722667-52.90666667000005h835.36554666c-1.74762667 214.95808-188.45240889 389.13820445-417.68277333 389.13820445S96.06485333 162.05141332999995 94.31722667-52.90666667000005z"  horiz-adv-x="1024" />

    
    <glyph glyph-name="ziyuanxhdpi" unicode="&#58956;" d="M869.033043 502.153846a54.136928 54.136928 0 0 0 54.136928-54.136928v-467.743061a54.136928 54.136928 0 0 0-54.136928-54.136929H154.966957a54.136928 54.136928 0 0 0-54.136928 54.136929V448.016918a54.136928 54.136928 0 0 0 54.136928 54.136928h714.066086m0 54.136929H154.966957a108.273857 108.273857 0 0 1-108.273856-108.273857v-467.743061a108.273857 108.273857 0 0 1 108.273856-108.273857h714.066086a108.273857 108.273857 0 0 1 108.273856 108.273857V448.016918a108.273857 108.273857 0 0 1-108.273856 108.273857zM817.873645 533.28258h-54.136928v56.843775a251.736717 251.736717 0 1 1-503.473434 0v-56.843775h-54.136928v56.843775a305.873645 305.873645 0 1 0 611.74729 0zM438.644462 375.473434m71.460746 0l3.789584 0q71.460745 0 71.460746-71.460746l0-3.789585q0-71.460745-71.460746-71.460745l-3.789584 0q-71.460745 0-71.460746 71.460745l0 3.789585q0 71.460745 71.460746 71.460746ZM483.036743 328.37430600000005m28.151203 0l1.353423 0q28.151203 0 28.151203-28.151203l0-204.366904q0-28.151203-28.151203-28.151203l-1.353423 0q-28.151203 0-28.151203 28.151203l0 204.366904q0 28.151203 28.151203 28.151203Z"  horiz-adv-x="1024" />

    
    <glyph glyph-name="you-tianchong" unicode="&#58884;" d="M0 896h1024v-1024H0zM512.7 831.8C265.4 831.8 65 631.3 65 384.1s200.4-447.7 447.7-447.7 447.7 200.4 447.7 447.7S759.9 831.8 512.7 831.8z m163.2-452.9c-0.4-2.6-0.5-5.3-1.5-7.8-0.6-1.5-1.9-2.6-2.7-4-1.5-2.5-2.7-5.1-4.8-7.3L444.1 136c-6.7-6.8-15.6-10.2-24.4-10.2-8.8 0-17.6 3.3-24.3 10-13.5 13.4-13.6 35.2-0.1 48.7l198.6 199.6-198.6 199.6c-13.4 13.5-13.4 35.3 0.1 48.7 13.4 13.5 35.2 13.4 48.7-0.1l222.8-223.8c2.1-2.1 3.4-4.8 4.8-7.3 0.8-1.4 2.1-2.6 2.7-4 1-2.5 1.1-5.1 1.5-7.8 0.3-1.8 1-3.4 1-5.2s-0.7-3.6-1-5.3z"  horiz-adv-x="1024" />

    
    <glyph glyph-name="yanjing1" unicode="&#59084;" d="M512.002844 646.542222c189.155556 0 361.415111-183.751111 427.207112-262.542222-65.792-78.791111-238.051556-262.542222-427.207112-262.542222S150.587733 305.208889 84.795733 384C150.587733 462.791111 322.847289 646.542222 512.002844 646.542222zM512.002844 725.333333C277.279289 725.333333 78.395733 501.361778 11.323733 416.284444a51.683556 51.683556 0 0 1 0-64.568888C78.395733 266.63822200000004 277.279289 42.66666699999996 512.002844 42.66666699999996s433.607111 223.971556 500.679112 309.048889a51.683556 51.683556 0 0 1 0 64.568888C945.609956 501.361778 746.7264 725.333333 512.002844 725.333333z m0-262.542222c42.410667 0 76.8-35.271111 76.8-78.791111s-34.389333-78.791111-76.8-78.791111-76.8 35.271111-76.8 78.791111 34.389333 78.791111 76.8 78.791111z m0 78.734222c-62.122667 0-118.129778-38.371556-141.880888-97.251555-23.779556-58.88-10.638222-126.606222 33.28-171.662222a150.755556 150.755556 0 0 1 167.367111-34.133334C628.169956 262.82666700000004 665.602844 320.284444 665.602844 384c0 87.011556-68.750222 157.525333-153.571555 157.525333z"  horiz-adv-x="1024" />

    


  </font>
</defs>
</svg>
